<?xml version="1.0" standalone="yes"?>
<!DOCTYPE svg PUBLIC "-//W3C//DTD SVG 1.1//EN" "http://www.w3.org/Graphics/SVG/1.1/DTD/svg11.dtd"><svg xmlns="http://www.w3.org/2000/svg" xmlns:xlink="http://www.w3.org/1999/xlink" width="261" height="261">
<path style="fill:#ffffff; stroke:none;" d="M0 0L0 261L261 261L261 0L0 0z"/>
<path style="fill:#010101; stroke:none;" d="M9 9L9 252L252 252L252 9L9 9z"/>
<path style="fill:#ffffff; stroke:none;" d="M12 12L12 129L49 129L49 49L129 49L129 12L12 12M132 12L132 49L212 49L212 129L249 129L249 12L132 12M52 52L52 129L89 129L89 89L129 89L129 52L52 52M132 52L132 89L172 89L172 129L209 129L209 52L132 52M92 92L92 169L169 169L169 92L92 92M12 132L12 249L129 249L129 212L49 212L49 132L12 132M52 132L52 209L129 209L129 172L89 172L89 132L52 132M172 132L172 172L132 172L132 209L209 209L209 132L172 132M212 132L212 212L132 212L132 249L249 249L249 132L212 132z"/>
<desc>Converted from Raster to SVG by RO IT Systems - info@roitsystems.com</desc></svg>
